<?xml version="1.0" encoding="UTF-8" standalone="no"?>
<!-- Created with Inkscape (http://www.inkscape.org/) -->

<svg
   xmlns:dc="http://purl.org/dc/elements/1.1/"
   xmlns:cc="http://creativecommons.org/ns#"
   xmlns:rdf="http://www.w3.org/1999/02/22-rdf-syntax-ns#"
   xmlns:svg="http://www.w3.org/2000/svg"
   xmlns="http://www.w3.org/2000/svg"
   xmlns:sodipodi="http://sodipodi.sourceforge.net/DTD/sodipodi-0.dtd"
   xmlns:inkscape="http://www.inkscape.org/namespaces/inkscape"
   id="svg7384"
   height="16"
   width="16"
   version="1.1"
   inkscape:version="0.48.4 r9939"
   sodipodi:docname="computer-laptop-symbolic.svg">
  <defs
     id="defs10" />
  <sodipodi:namedview
     pagecolor="#ffffff"
     bordercolor="#666666"
     borderopacity="1"
     objecttolerance="10"
     gridtolerance="10"
     guidetolerance="10"
     inkscape:pageopacity="0"
     inkscape:pageshadow="2"
     inkscape:window-width="1366"
     inkscape:window-height="713"
     id="namedview8"
     showgrid="false"
     inkscape:zoom="14.75"
     inkscape:cx="5.4915254"
     inkscape:cy="8"
     inkscape:window-x="0"
     inkscape:window-y="30"
     inkscape:window-maximized="1"
     inkscape:current-layer="layer10" />
  <metadata
     id="metadata90">
    <rdf:RDF>
      <cc:Work
         rdf:about="">
        <dc:format>image/svg+xml</dc:format>
        <dc:type
           rdf:resource="http://purl.org/dc/dcmitype/StillImage" />
        <dc:title>Gnome Symbolic Icon Theme</dc:title>
      </cc:Work>
    </rdf:RDF>
  </metadata>
  <title
     id="title9167">Gnome Symbolic Icon Theme</title>
  <g
     id="layer10"
     transform="translate(-181 -447)">
    <path
       id="rect3773"
       style="fill:#bebebe"
       d="m 192.32203,452.61015 c 1.38031,0 2.49153,1.11122 2.49153,2.49152 l 0,6.1356 c 0,1.3803 -1.11122,1.33898 -2.49153,1.33898 l -6.64406,0 c -1.38031,0 -2.49153,0.0413 -2.49153,-1.33898 l 0,-6.1356 c 0,-1.3803 1.11122,-2.49152 2.49153,-2.49152 z m 0,1.66102 -6.64406,0 c -0.46011,0 -0.83051,0.3704 -0.83051,0.8305 l 0,6.67798 c 0,0.4601 1.99757,0.21356 2.45763,0.22033 l 4.61016,0.0678 c 0.46006,0.007 1.165,0.44314 1.16949,-0.0169 l 0.0678,-6.94916 c 0.004,-0.46008 -0.3704,-0.8305 -0.83051,-0.8305 z"
       inkscape:connector-curvature="0"
       sodipodi:nodetypes="ssssssssssssssssss" />
    <path
       id="rect3778"
       style="fill:#bebebe"
       d="m 189,461 c -7.91525,0 -7.91525,1 -7.91525,1 0,1 1.58305,1 1.58305,1 h 12.6644 c 1.58305,0 1.58305,-1 1.58305,-1 0,0 0,-1 -7.91525,-1 z"
       inkscape:connector-curvature="0" />
  </g>
</svg>
